<svg height="512pt" viewBox="0 0 512 512" width="512pt" xmlns="http://www.w3.org/2000/svg"><path d="m512 256c0 141.386719-114.613281 256-256 256s-256-114.613281-256-256 114.613281-256 256-256 256 114.613281 256 256zm0 0" fill="rgba(0, 0, 0, 0.3)"/><path d="m382.121094 449.578125v29.246094c-37.222656 21.117187-80.261719 33.175781-126.121094 33.175781-27.03125 0-53.070312-4.191406-77.53125-11.953125-17.03125-5.402344-33.300781-12.550781-48.589844-21.222656v-29.246094c0-49.914063 38.445313-90.863281 87.355469-94.8125 2.570313-.210937 5.160156-.316406 7.785156-.316406h61.953125c7.324219 0 14.449219.816406 21.292969 2.382812 42.296875 9.675781 73.855469 47.53125 73.855469 92.746094zm0 0" fill="#eaa27f"/><path d="m382.121094 449.578125v29.246094c-37.222656 21.117187-80.261719 33.175781-126.121094 33.175781-27.03125 0-53.070312-4.191406-77.53125-11.953125v-50.46875c0-52.539063 42.601562-95.128906 95.148438-95.128906h13.355468c52.554688 0 95.148438 42.589843 95.148438 95.128906zm0 0" fill="#f6ba97"/><path d="m289.941406 317.800781v41.65625c0 15.25-10.054687 28.140625-23.90625 32.421875-3.167968.980469-6.546875 1.515625-10.042968 1.515625-18.742188 0-33.9375-15.195312-33.9375-33.9375v-41.65625zm0 0" fill="#eaa27f"/><path d="m289.941406 356.816406v2.640625c0 15.25-10.054687 28.140625-23.90625 32.421875-12.496094-3.84375-21.890625-14.707031-23.625-28.003906 2.265625.140625 4.546875.210938 6.835938.210938 6.421875 0 12.71875-.511719 18.851562-1.519532 7.554688-1.210937 14.855469-3.15625 21.84375-5.75zm0 0" fill="#f6ba97"/><path d="m162.886719 249.53125c0 15.714844-11.476563 28.742188-26.507813 31.160156-1.640625.269532-3.332031.40625-5.054687.40625-17.4375 0-31.566407-14.128906-31.566407-31.566406 0-17.433594 14.128907-31.5625 31.566407-31.5625 1.722656 0 3.414062.136719 5.054687.40625 15.03125 2.417969 26.507813 15.445312 26.507813 31.15625zm0 0" fill="#f6ba97"/><path d="m162.886719 249.53125c0 15.714844-11.476563 28.742188-26.507813 31.160156-2.730468-9.925781-4.1875-20.375-4.1875-31.160156 0-10.78125 1.457032-21.230469 4.1875-31.15625 15.03125 2.417969 26.507813 15.445312 26.507813 31.15625zm0 0" fill="#eaa27f"/><path d="m142.605469 249.53125c0 6.234375-5.050781 11.285156-11.28125 11.285156s-11.285157-5.050781-11.285157-11.285156c0-6.230469 5.054688-11.28125 11.285157-11.28125s11.28125 5.050781 11.28125 11.28125zm0 0" fill="#eaa27f"/><path d="m349.105469 249.53125c0 15.714844 11.476562 28.742188 26.507812 31.160156 1.644531.269532 3.332031.40625 5.054688.40625 17.4375 0 31.566406-14.128906 31.566406-31.566406 0-17.433594-14.128906-31.5625-31.566406-31.5625-1.722657 0-3.410157.136719-5.054688.40625-15.03125 2.417969-26.507812 15.445312-26.507812 31.15625zm0 0" fill="#f6ba97"/><path d="m349.105469 249.53125c0 15.714844 11.476562 28.742188 26.507812 31.160156 2.730469-9.925781 4.1875-20.375 4.1875-31.160156 0-10.78125-1.457031-21.230469-4.1875-31.15625-15.03125 2.417969-26.507812 15.445312-26.507812 31.15625zm0 0" fill="#eaa27f"/><path d="m373.4375 188.039062v44.722657c0 58.441406-42.691406 106.921875-98.59375 115.917969-.1875.03125-.386719.0625-.574219.097656-5.945312.949218-12.050781 1.417968-18.277343 1.417968-64.855469 0-117.4375-52.578124-117.4375-117.433593v-44.722657c0-13.65625 2.332031-26.78125 6.636718-38.976562 16.058594-45.703125 59.613282-78.46875 110.800782-78.46875h.011718c6.214844 0 12.328125.480469 18.285156 1.417969 56.171876 8.777343 99.148438 57.386719 99.148438 116.027343zm0 0" fill="#eaa27f"/><path d="m391.953125 249.53125c0 6.234375-5.050781 11.285156-11.285156 11.285156-6.230469 0-11.28125-5.050781-11.28125-11.285156 0-6.230469 5.050781-11.28125 11.28125-11.28125 6.234375 0 11.285156 5.050781 11.285156 11.28125zm0 0" fill="#eaa27f"/><path d="m373.4375 188.039062v44.722657c0 58.441406-42.691406 106.921875-98.59375 115.917969-.1875.03125-.386719.0625-.574219.097656-56.175781-8.777344-99.140625-57.386719-99.140625-116.015625v-44.722657c0-58.640624 42.976563-107.25 99.160156-116.027343 56.171876 8.777343 99.148438 57.386719 99.148438 116.027343zm0 0" fill="#f6ba97"/><path d="m230.984375 225.921875c0 7.355469-5.960937 13.320313-13.320313 13.320313-7.359374 0-13.324218-5.964844-13.324218-13.320313 0-7.359375 5.964844-13.324219 13.324218-13.324219 7.359376 0 13.320313 5.964844 13.320313 13.324219zm0 0" fill="#2f373b"/><path d="m307.65625 225.921875c0 7.355469-5.964844 13.320313-13.324219 13.320313s-13.324219-5.964844-13.324219-13.320313c0-7.359375 5.964844-13.324219 13.324219-13.324219s13.324219 5.964844 13.324219 13.324219zm0 0" fill="#2f373b"/><path d="m228.269531 223.570312c0 3.152344-2.554687 5.707032-5.707031 5.707032s-5.710938-2.554688-5.710938-5.707032c0-3.152343 2.558594-5.710937 5.710938-5.710937s5.707031 2.558594 5.707031 5.710937zm0 0" fill="#fff"/><path d="m305.59375 223.570312c0 3.152344-2.558594 5.707032-5.710938 5.707032-3.152343 0-5.707031-2.554688-5.707031-5.707032 0-3.152343 2.554688-5.710937 5.707031-5.710937 3.152344 0 5.710938 2.558594 5.710938 5.710937zm0 0" fill="#fff"/><path d="m269.320312 259.464844h-26.644531c-3.175781 0-5.746093-2.574219-5.746093-5.746094 0-3.175781 2.570312-5.746094 5.746093-5.746094h26.644531c3.175782 0 5.746094 2.570313 5.746094 5.746094 0 3.171875-2.570312 5.746094-5.746094 5.746094zm0 0" fill="#eaa27f"/><path d="m255.996094 290.597656c-9.832032 0-19.667969-2.460937-28.628906-7.390625-2.53125-1.390625-3.453126-4.566406-2.0625-7.09375 1.390624-2.53125 4.566406-3.453125 7.09375-2.0625 14.777343 8.125 32.421874 8.121094 47.199218 0 2.523438-1.390625 5.703125-.46875 7.09375 2.0625 1.390625 2.527344.464844 5.703125-2.0625 7.09375-8.960937 4.929688-18.796875 7.390625-28.632812 7.390625zm0 0" fill="#eaa27f"/><path d="m333.535156 363.90625v136.117188c-1.453125.472656-2.914062.921874-4.390625 1.359374-6.507812 1.945313-13.132812 3.636719-19.851562 5.046876-.785157.167968-1.566407.324218-2.351563.492187-2.164062.4375-4.347656.84375-6.53125 1.222656-.4375.070313-.867187.15625-1.304687.21875-14.023438 2.390625-28.421875 3.636719-43.101563 3.636719-14.679687 0-29.082031-1.246094-43.101562-3.625-.441406-.074219-.867188-.148438-1.308594-.222656-.867188-.144532-1.742188-.300782-2.609375-.46875-1.308594-.230469-2.613281-.492188-3.921875-.753906-.4375-.09375-.867188-.175782-1.304688-.269532-.34375-.074218-.699218-.148437-1.042968-.21875-8.234375-1.746094-16.3125-3.878906-24.242188-6.394531v-136.140625l24.242188-10.449219 3.121094 21.921875c1.765624 27.238282 24.378906 48.429688 51.671874 48.429688 14.292969 0 27.25-5.796875 36.613282-15.171875 9.371094-9.371094 15.171875-22.308594 15.171875-36.613281v-18.566407zm0 0" fill="#ffd833"/><g fill="#2f373b"><path d="m375.625 54.09375v164.277344c-6.375-2.851563-11.839844-7.175782-16.03125-12.515625-4.191406-5.332031-7.105469-11.664063-8.367188-18.527344l-5.601562-30.425781c-2.726562-14.777344-17.167969-24.347656-31.839844-21.085938l-36.914062 8.199219c-13.742188 3.0625-27.996094 3.0625-41.734375 0l-33.46875-7.4375-3.449219-.761719c-14.667969-3.261718-29.109375 6.308594-31.835938 21.085938l-5.601562 30.425781c-2.527344 13.730469-11.660156 25.339844-24.398438 31.042969v-164.277344h47.847657 143.546875zm0 0"/><path d="m184.230469 54.09375c0 13.21875-10.710938 23.929688-23.929688 23.929688-13.207031 0-23.917969-10.710938-23.917969-23.929688s10.710938-23.929688 23.917969-23.929688c13.21875 0 23.929688 10.710938 23.929688 23.929688zm0 0"/><path d="m232.074219 54.09375c0 13.21875-10.710938 23.929688-23.917969 23.929688-2.246094 0-4.429688-.316407-6.488281-.902344-10.0625-2.820313-17.4375-12.054688-17.4375-23.027344s7.375-20.207031 17.4375-23.03125c2.058593-.582031 4.242187-.898438 6.488281-.898438 13.207031 0 23.917969 10.710938 23.917969 23.929688zm0 0"/><path d="m279.929688 54.09375c0 13.214844-10.714844 23.925781-23.925782 23.925781-13.214844 0-23.925781-10.710937-23.925781-23.925781s10.710937-23.925781 23.925781-23.925781c13.210938 0 23.925782 10.710937 23.925782 23.925781zm0 0"/><path d="m327.777344 54.09375c0 13.214844-10.710938 23.925781-23.925782 23.925781-13.210937 0-23.921874-10.710937-23.921874-23.925781s10.710937-23.925781 23.921874-23.925781c13.214844 0 23.925782 10.710937 23.925782 23.925781zm0 0"/><path d="m375.628906 54.09375c0 13.214844-10.714844 23.925781-23.925781 23.925781-13.214844 0-23.925781-10.710937-23.925781-23.925781s10.710937-23.925781 23.925781-23.925781c13.210937 0 23.925781 10.710937 23.925781 23.925781zm0 0"/></g><path d="m184.230469 54.09375v82.398438c-8.914063 2.917968-16.019531 10.492187-17.847657 20.410156l-5.601562 30.425781c-2.527344 13.730469-11.660156 25.339844-24.398438 31.042969v-164.277344c0-13.21875 10.710938-23.929688 23.917969-23.929688 13.21875 0 23.929688 10.710938 23.929688 23.929688zm0 0" fill="#151a1c"/><path d="m306.941406 446.691406v60.230469c-2.164062.4375-4.347656.84375-6.53125 1.222656-.4375.070313-.867187.15625-1.304687.21875-14.023438 2.390625-28.421875 3.636719-43.101563 3.636719-14.679687 0-29.082031-1.246094-43.101562-3.625-.441406-.074219-.867188-.148438-1.308594-.222656-.867188-.144532-1.742188-.300782-2.609375-.46875-1.308594-.230469-2.613281-.492188-3.921875-.753906v-60.238282zm0 0" fill="#f2efea"/><path d="m233.53125 501.550781v-23.007812h-10.3125v-6.675781c6.609375 0 9.980469-1.519532 14.210938-6.082032h6.082031v35.765625h9.519531v8.128907h-29.8125v-8.128907zm0 0" fill="#2f373b"/><path d="m288.789062 509.679688h-31.859374v-.660157c0-1.984375.460937-3.835937 1.253906-5.554687 5.421875-11.832032 20.292968-15.136719 20.292968-24.523438 0-3.238281-1.847656-6.476562-6.015624-6.476562-4.757813 0-6.277344 3.4375-6.277344 8.394531h-9.386719v-1.519531c0-7.800782 5.289063-14.015625 15.667969-14.015625 10.113281 0 16.128906 5.882812 16.128906 13.617187 0 8-5.421875 12.296875-10.90625 16.460938l-2.511719 1.914062c-1.65625 1.257813-3.375 2.710938-4.363281 4.234375h17.980469v8.128907zm0 0" fill="#2f373b"/></svg>